<?xml version="1.0" encoding="utf-8"?>
<!-- Generator: Adobe Illustrator 21.0.0, SVG Export Plug-In . SVG Version: 6.00 Build 0)  -->
<svg version="1.1" id="Layer_1" xmlns="http://www.w3.org/2000/svg" xmlns:xlink="http://www.w3.org/1999/xlink" x="0px" y="0px"
	height="40px" width="40px" viewBox="0 0 47.9 134.6" style="enable-background:new 0 0 47.9 134.6;" xml:space="preserve">
<style type="text/css">
	.st0{fill:rgba(0, 0, 0, 0.5);}
	.st1{fill:#404041;}
	.st2{fill:#2B3031;}
	.st3{fill:#202122;}
	.st4{fill:#565656;}
	.st5{fill:#474747;}
	.st6{fill:#5D5D5D;}
	.st7{fill:#484848;}
	.st8{fill:#404040;}
	.st9{fill:#3D3D3D;}
	.st10{fill:#515151;}
	.st11{fill:#4B4B4B;}
	.st12{fill:#616161;}
	.st13{fill:#5C5C5C;}
	.st14{fill:#545454;}
	.st15{fill:#D2D2D2;}
	.st16{fill:#A3A3A3;}
	.st17{fill:#818181;}
	.st18{fill:#A8A8A8;}
		.st19{fill:#860101;}
		.st20{fill:#860101;}
			.st21{fill:#860101;}
			.st22{fill:#860101;}
	.st23{fill:#B93631;}
			.st24{fill:#860101;}
			.st25{fill:#860101;}
	.st26{fill:#AD322E;}
			.st27{fill:#860101;}
	.st28{fill:#B3342F;}
	.st29{fill:#E94742;}
</style>
<title>Asset 1</title>
<g>
	<path class="st0" d="M46,123.3h0.5l0.8-0.8v-2.6v-9.1l-0.8-0.8h-0.4v-0.4l-0.1-0.2v-2v-2.1h0.3l0.8-0.2v-3.5v-3.4v-2.5v-1.5v-0.1
		l-0.8-0.8H46V59v-0.2V57h0.4l0.8-0.2V44.6l-0.8-0.9H46v-0.5V43v-4.6l-0.9-1.3l-0.4-0.6l-0.2-0.3h-0.1l-1-0.3l-0.5-0.1H37l0.1-0.9
		c-0.2-0.1-0.3-0.3-0.5-0.4c-0.4,0-0.7,0-1.1,0h-2.8V34h2.8l1.6-0.2c0-1.2,0-2.5,0-3.7L36.6,30h5.8h1l0.7-0.7l0.3-0.4v-1.4h0.2
		l0.8-0.2v-3v-2.8v-2.1v-1.2v-0.1l-0.8-0.7h-0.2V7.7l1.5-0.9l0.5-0.3l2.1-1.2l-0.1-0.4V4.5h-1.2l-1,0.5l-0.2,0.1l-2.2,0.4l-0.7-0.9
		L41,3.2L37.1,2H15.4l-3.9,1.3L9.3,4.6L8.7,5.5L6.5,5.2L6.4,5l-1-0.5H4.2V5l0.1,0.4l2.1,1.2l0.5,0.3l1.5,0.8v9.1l-0.1,0.2v0.4H8
		l-0.8,0.7v9.2L8,27.4h0.4V29l0.1-0.2V29l1,1h1h6.1L15.6,30l-0.1,2.8c0,0.2,0,0.5,0,0.7c0.2,0.1,0.5,0.4,0.7,0.4c1,0,1.9,0,2.9,0
		c0.3,0,0.6,0.1,0.9,0.2v0.3c-1.1,0-2.2,0.1-3.3,0.1s-1.1,0-1.1,0.9c0,0.1,0,0.3,0,0.4H9.9L9.1,36H8.9l-0.6,0.1L7.7,37l-0.9,1.3v4.6
		L6.7,43v0.2v0.3H6.3l-0.8,1v0.1v1.6V49v3.7v4l0.8,0.2h0.4V57v1.8l0.1-0.2v34l-0.1,0.2v0.4H6.3l-0.8,0.8v11l0.8,0.2h0.4v1.8l0.1-0.2
		v0.5l-0.1,0.1l0.1,0.1v1.9l-0.1,0.2v0.4H6.3l-0.8,0.8v9.1v2.6l0.8,0.8h0.5v0.1H5.3v1.3h1.5v8.7l0.4,0.5l0.4,0.5l0.2,0.3l2.2,0.5
		h32.9l2.2-0.5l0.2-0.3l0.4-0.5l0.4-0.5v-8.5h1.5v-1.3H46L46,123.3L46,123.3z"/>
	<path class="st1" d="M32.7,28.7h-0.3h-0.1c-6.3,0-12.5-0.1-18.8-0.1h-0.4H13l-0.9,0.1c0,0.9,0,1.8-0.1,2.8v0.7
		c0.2,0.1,0.5,0.4,0.7,0.4c1,0,1.9,0,2.9,0c0.3,0,0.6,0.1,0.8,0.2c0.1-1.3,0.4-1.6,1.6-1.6l8.8,0.1c1.6,0,1.7,0,2.1,1.3h2.8l1.5-0.2
		v-3.6L32.7,28.7z M15.1,29.9c1.6-0.4,3.3-0.4,4.8,0H15.1z M30.7,29.9h-4.8c0-0.1,0-0.2,0-0.3c1.6,0,3.2,0,4.8,0
		C30.7,29.7,30.7,29.9,30.7,29.9L30.7,29.9z"/>
	<path class="st1" d="M16.4,33.2c-1.1,0-2.2,0.1-3.3,0.1s-1.1,0-1.1,0.9c0,0.2,0,0.3,0,0.5h21.2l0.1-1c-0.2-0.1-0.3-0.3-0.5-0.4
		c-0.4,0-0.7,0-1.1,0h-2.8c-0.4,0.4-1,0.6-1.5,0.6c-3.2,0-6.4,0-9.6,0C17.1,33.9,16.6,33.8,16.4,33.2z"/>
	<path class="st2" d="M28.9,33.3v-0.6c-0.5-1.4-0.5-1.4-2.2-1.4l-9-0.1c-1.2,0-1.5,0.3-1.6,1.7v0.3c0.2,0.5,0.7,0.7,1.3,0.7
		c3.2,0,6.5,0,9.8,0C27.9,34,28.5,33.7,28.9,33.3z"/>
	<path class="st3" d="M25.9,29.9h4.8v-0.5c-1.6,0-3.2,0-4.8,0V29.9z"/>
	<path class="st3" d="M20,29.9c-1.6-0.4-3.3-0.4-4.8,0H20z"/>
	<polygon class="st4" points="42.3,106 42.2,105.8 42.2,104.4 42.3,104.3 	"/>
	<polygon points="42.3,91.7 42.3,91.9 42.2,91.6 42.2,91.5 	"/>
	<polygon points="42.3,104.3 42.2,104.4 42.2,100.2 42.3,100.3 42.3,100.3 42.3,104.2 	"/>
	<polygon points="42.3,100.3 42.2,100.2 42.2,96.3 42.3,96.5 42.3,96.7 	"/>
	<polygon points="42.3,96.5 42.2,96.3 42.2,93.3 42.3,93.5 42.3,93.9 	"/>
	<polygon points="42.3,93.5 42.2,93.3 42.2,91.6 42.3,91.9 42.3,92.2 42.3,92.3 	"/>
	<polygon points="42.7,92.2 43.4,93.1 43.4,93.1 42.7,92.3 	"/>
	<rect x="42.3" y="92.2" width="0.4" height="0.1"/>
	<polygon class="st5" points="42.7,92.3 43.4,93.1 43.4,94.6 42.7,93.9 	"/>
	<polygon points="42.7,93.9 43.4,94.6 43.4,97.2 42.7,96.7 	"/>
	<polygon points="42.7,93.9 42.7,96.7 42.3,96.7 42.3,96.5 42.3,93.9 	"/>
	<polygon class="st6" points="42.3,96.7 42.7,96.7 42.7,100.3 42.3,100.3 42.3,100.3 	"/>
	<polygon points="42.7,93.9 42.3,93.9 42.3,93.5 42.3,92.3 42.7,92.3 	"/>
	<polygon class="st7" points="42.7,96.7 43.4,97.2 43.4,100.5 42.7,100.3 	"/>
	<rect x="42.3" y="100.3" width="0.4" height="3.9"/>
	<polygon class="st8" points="42.7,100.3 43.4,100.5 43.4,104.1 42.7,104.2 	"/>
	<g>
		<polygon class="st4" points="42.3,57.8 42.2,57.5 42.2,56 42.3,55.9 		"/>
		<polygon class="st9" points="42.3,42 42.3,42.1 42.2,41.8 42.2,41.7 		"/>
		<polygon class="st9" points="42.3,55.9 42.2,56 42.2,51.4 42.3,51.4 42.3,51.5 42.3,55.8 		"/>
		<polygon class="st9" points="42.3,51.4 42.2,51.4 42.2,47.1 42.3,47.2 42.3,47.5 		"/>
		<polygon class="st9" points="42.3,47.2 42.2,47.1 42.2,43.7 42.3,43.9 42.3,44.4 		"/>
		<polygon class="st9" points="42.3,43.9 42.2,43.7 42.2,41.8 42.3,42.1 42.3,42.5 42.3,42.6 		"/>
		<polygon class="st10" points="42.7,42.5 43.5,43.4 43.5,43.5 42.7,42.6 		"/>
		<rect x="42.3" y="42.5" class="st10" width="0.4" height="0.1"/>
		<polygon class="st5" points="42.7,42.6 43.5,43.5 43.5,45.1 42.7,44.4 		"/>
		<polygon class="st11" points="42.7,44.4 43.5,45.1 43.5,48 42.7,47.5 		"/>
		<polygon class="st12" points="42.7,44.4 42.7,47.5 42.3,47.5 42.3,47.2 42.3,44.4 		"/>
		<polygon class="st6" points="42.3,47.5 42.7,47.5 42.7,51.5 42.3,51.5 42.3,51.4 		"/>
		<polygon class="st13" points="42.7,44.4 42.3,44.4 42.3,43.9 42.3,42.6 42.7,42.6 		"/>
		<polygon class="st7" points="42.7,47.5 43.5,48 43.5,51.7 42.7,51.5 		"/>
		<rect x="42.3" y="51.5" class="st14" width="0.4" height="4.3"/>
		<polygon class="st8" points="42.7,51.5 43.5,51.7 43.5,55.6 42.7,55.8 		"/>
		<polygon class="st4" points="2.9,57.8 3,57.5 3,55.9 2.9,55.9 		"/>
		<polygon points="2.9,42 2.9,42.1 3,41.8 3,41.7 		"/>
		<polygon class="st9" points="2.9,55.9 3,55.9 3,51.3 2.9,51.4 2.9,51.5 2.9,55.8 		"/>
		<polygon class="st9" points="2.9,51.4 3,51.3 3,47 2.9,47.2 2.9,47.5 		"/>
		<polygon class="st9" points="2.9,47.2 3,47 3,43.7 2.9,43.9 2.9,44.3 		"/>
		<polygon class="st9" points="2.9,43.9 3,43.7 3,41.8 2.9,42.1 2.9,42.5 2.9,42.6 		"/>
		<polygon class="st5" points="2.5,42.5 1.7,43.4 1.7,43.5 2.5,42.6 		"/>
		<rect x="2.5" y="42.5" class="st5" width="0.4" height="0.1"/>
		<polygon class="st5" points="2.5,42.6 1.7,43.5 1.7,45.1 2.5,44.3 		"/>
		<polygon class="st11" points="2.5,44.3 1.7,45.1 1.7,48 2.5,47.5 		"/>
		<polygon class="st12" points="2.5,44.3 2.5,47.5 2.9,47.5 2.9,47.2 2.9,44.3 		"/>
		<polygon class="st6" points="2.9,47.5 2.5,47.5 2.5,51.5 2.9,51.5 2.9,51.4 		"/>
		<polygon class="st13" points="2.5,44.3 2.9,44.3 2.9,43.9 2.9,42.6 2.5,42.6 		"/>
		<polygon class="st7" points="2.5,47.5 1.7,48 1.7,51.7 2.5,51.5 		"/>
		<rect x="2.5" y="51.5" class="st14" width="0.4" height="4.3"/>
		<polygon class="st8" points="2.5,51.5 1.7,51.7 1.7,55.6 2.5,55.8 		"/>
	</g>
	<g>
		<polygon class="st4" points="42.3,106.2 42.2,105.9 42.2,104.4 42.3,104.3 		"/>
		<polygon class="st9" points="42.3,90.4 42.3,90.5 42.2,90.2 42.2,90.1 		"/>
		<polygon class="st9" points="42.3,104.3 42.2,104.4 42.2,99.8 42.3,99.8 42.3,99.9 42.3,104.2 		"/>
		<polygon class="st9" points="42.3,99.8 42.2,99.8 42.2,95.5 42.3,95.6 42.3,95.9 		"/>
		<polygon class="st9" points="42.3,95.6 42.2,95.5 42.2,92.1 42.3,92.3 42.3,92.8 		"/>
		<polygon class="st9" points="42.3,92.3 42.2,92.1 42.2,90.2 42.3,90.5 42.3,90.9 42.3,91 		"/>
		<polygon class="st10" points="42.7,90.9 43.5,91.8 43.5,91.9 42.7,91 		"/>
		<rect x="42.3" y="90.9" class="st10" width="0.4" height="0.1"/>
		<polygon class="st5" points="42.7,91 43.5,91.9 43.5,93.5 42.7,92.8 		"/>
		<polygon class="st11" points="42.7,92.8 43.5,93.5 43.5,96.4 42.7,95.9 		"/>
		<polygon class="st12" points="42.7,92.8 42.7,95.9 42.3,95.9 42.3,95.6 42.3,92.8 		"/>
		<polygon class="st6" points="42.3,95.9 42.7,95.9 42.7,99.9 42.3,99.9 42.3,99.8 		"/>
		<polygon class="st13" points="42.7,92.8 42.3,92.8 42.3,92.3 42.3,91 42.7,91 		"/>
		<polygon class="st7" points="42.7,95.9 43.5,96.4 43.5,100.1 42.7,99.9 		"/>
		<rect x="42.3" y="99.9" class="st14" width="0.4" height="4.3"/>
		<polygon class="st8" points="42.7,99.9 43.5,100.1 43.5,104 42.7,104.2 		"/>
		<polygon class="st4" points="2.9,106.2 3,105.9 3,104.3 2.9,104.3 		"/>
		<polygon points="2.9,90.4 2.9,90.5 3,90.2 3,90.1 		"/>
		<polygon class="st9" points="2.9,104.3 3,104.3 3,99.7 2.9,99.8 2.9,99.9 2.9,104.2 		"/>
		<polygon class="st9" points="2.9,99.8 3,99.7 3,95.4 2.9,95.6 2.9,95.9 		"/>
		<polygon class="st9" points="2.9,95.6 3,95.4 3,92.1 2.9,92.3 2.9,92.7 		"/>
		<polygon class="st9" points="2.9,92.3 3,92.1 3,90.2 2.9,90.5 2.9,90.9 2.9,91 		"/>
		<polygon class="st5" points="2.5,90.9 1.7,91.8 1.7,91.9 2.5,91 		"/>
		<rect x="2.5" y="90.9" class="st5" width="0.4" height="0.1"/>
		<polygon class="st5" points="2.5,91 1.7,91.9 1.7,93.5 2.5,92.7 		"/>
		<polygon class="st11" points="2.5,92.7 1.7,93.5 1.7,96.4 2.5,95.9 		"/>
		<polygon class="st12" points="2.5,92.7 2.5,95.9 2.9,95.9 2.9,95.6 2.9,92.7 		"/>
		<polygon class="st6" points="2.9,95.9 2.5,95.9 2.5,99.9 2.9,99.9 2.9,99.8 		"/>
		<polygon class="st13" points="2.5,92.7 2.9,92.7 2.9,92.3 2.9,91 2.5,91 		"/>
		<polygon class="st7" points="2.5,95.9 1.7,96.4 1.7,100.1 2.5,99.9 		"/>
		<rect x="2.5" y="99.9" class="st14" width="0.4" height="4.3"/>
		<polygon class="st8" points="2.5,99.9 1.7,100.1 1.7,104 2.5,104.2 		"/>
	</g>
	<g>
		<polygon class="st4" points="42.3,124 42.2,123.7 42.2,122.2 42.3,122.1 		"/>
		<polygon class="st9" points="42.3,108.2 42.3,108.3 42.2,108 42.2,107.9 		"/>
		<polygon class="st9" points="42.3,122.1 42.2,122.2 42.2,117.6 42.3,117.6 42.3,117.7 42.3,122 		"/>
		<polygon class="st9" points="42.3,117.6 42.2,117.6 42.2,113.3 42.3,113.4 42.3,113.7 		"/>
		<polygon class="st9" points="42.3,113.4 42.2,113.3 42.2,109.9 42.3,110.1 42.3,110.6 		"/>
		<polygon class="st9" points="42.3,110.1 42.2,109.9 42.2,108 42.3,108.3 42.3,108.7 42.3,108.8 		"/>
		<polygon class="st10" points="42.7,108.7 43.5,109.6 43.5,109.7 42.7,108.8 		"/>
		<rect x="42.3" y="108.7" class="st10" width="0.4" height="0.1"/>
		<polygon class="st5" points="42.7,108.8 43.5,109.7 43.5,111.3 42.7,110.6 		"/>
		<polygon class="st11" points="42.7,110.6 43.5,111.3 43.5,114.2 42.7,113.7 		"/>
		<polygon class="st12" points="42.7,110.6 42.7,113.7 42.3,113.7 42.3,113.4 42.3,110.6 		"/>
		<polygon class="st6" points="42.3,113.7 42.7,113.7 42.7,117.7 42.3,117.7 42.3,117.6 		"/>
		<polygon class="st13" points="42.7,110.6 42.3,110.6 42.3,110.1 42.3,108.8 42.7,108.8 		"/>
		<polygon class="st7" points="42.7,113.7 43.5,114.2 43.5,117.9 42.7,117.7 		"/>
		<rect x="42.3" y="117.7" class="st14" width="0.4" height="4.3"/>
		<polygon class="st8" points="42.7,117.7 43.5,117.9 43.5,121.8 42.7,122 		"/>
		<polygon class="st4" points="2.9,124 3,123.7 3,122.1 2.9,122.1 		"/>
		<polygon points="2.9,108.2 2.9,108.3 3,108 3,107.9 		"/>
		<polygon class="st9" points="2.9,122.1 3,122.1 3,117.5 2.9,117.6 2.9,117.7 2.9,122 		"/>
		<polygon class="st9" points="2.9,117.6 3,117.5 3,113.2 2.9,113.4 2.9,113.7 		"/>
		<polygon class="st9" points="2.9,113.4 3,113.2 3,109.9 2.9,110.1 2.9,110.5 		"/>
		<polygon class="st9" points="2.9,110.1 3,109.9 3,108 2.9,108.3 2.9,108.7 2.9,108.8 		"/>
		<polygon class="st5" points="2.5,108.7 1.7,109.6 1.7,109.7 2.5,108.8 		"/>
		<rect x="2.5" y="108.7" class="st5" width="0.4" height="0.1"/>
		<polygon class="st5" points="2.5,108.8 1.7,109.7 1.7,111.3 2.5,110.5 		"/>
		<polygon class="st11" points="2.5,110.5 1.7,111.3 1.7,114.2 2.5,113.7 		"/>
		<polygon class="st12" points="2.5,110.5 2.5,113.7 2.9,113.7 2.9,113.4 2.9,110.5 		"/>
		<polygon class="st6" points="2.9,113.7 2.5,113.7 2.5,117.7 2.9,117.7 2.9,117.6 		"/>
		<polygon class="st13" points="2.5,110.5 2.9,110.5 2.9,110.1 2.9,108.8 2.5,108.8 		"/>
		<polygon class="st7" points="2.5,113.7 1.7,114.2 1.7,117.9 2.5,117.7 		"/>
		<rect x="2.5" y="117.7" class="st14" width="0.4" height="4.3"/>
		<polygon class="st8" points="2.5,117.7 1.7,117.9 1.7,121.8 2.5,122 		"/>
	</g>
	<polygon class="st4" points="2.9,106 3,105.8 3,104.4 2.9,104.3 	"/>
	<polygon class="st15" points="39.3,122.8 39.7,122 39.7,122.1 39.3,123 	"/>
	<polygon points="41.5,122 41.9,122.8 41.9,123 41.5,122.1 	"/>
	<polygon points="41.3,121.9 41.5,122 41.5,122.1 41,121.9 	"/>
	<polygon points="39.7,122 40,121.9 40.3,121.9 39.7,122.1 	"/>
	<polygon class="st16" points="39.7,122.1 40.3,121.9 40.6,121.9 39.8,122.2 39.5,122.9 39.5,123 39.8,123.7 40.6,124 41.5,123.7 
		41.8,123 41.8,122.9 41.5,122.2 40.7,121.9 41,121.9 41.5,122.1 41.9,123 41.5,123.8 40.6,124.1 39.7,123.8 39.3,123 	"/>
	<polygon points="39.8,122.2 40.6,121.9 40.7,121.9 41.5,122.2 41.8,122.9 41.5,123.6 40.6,123.9 39.8,123.6 39.5,122.9 	"/>
	<polygon points="39.5,122.9 39.8,123.6 39.8,123.7 39.5,123 	"/>
	<polygon points="39.8,123.7 39.8,123.6 40.6,123.9 40.6,124 	"/>
	<polygon points="40.6,124 40.6,123.9 41.5,123.6 41.5,123.7 	"/>
	<polygon class="st15" points="41.8,123 41.5,123.7 41.5,123.6 41.8,122.9 	"/>
	<rect x="31" y="119.7" width="10.6" height="3.5"/>
	<polygon class="st9" points="41.6,123.2 41.6,119.7 42.1,118.9 42.3,118.9 42.3,121 42.3,122.1 42.1,122.4 	"/>
	<polygon class="st17" points="41.6,116.1 41.6,116.7 41.2,116.7 	"/>
	<polygon points="41.2,116.7 41.6,116.7 41.6,120.6 37.5,120.6 37.5,118.4 37.5,118.2 38.9,118.2 40.5,117.8 	"/>
	<polygon points="31,119.7 31,119.6 37.5,119.6 37.5,118.9 41.6,118.9 41.6,119.7 	"/>
	<polygon class="st4" points="41.6,119.7 41.6,118.9 42.1,118.9 	"/>
	<polygon points="43.7,123.8 35.4,123.8 35.4,123.5 35.4,122.6 39.5,122.6 40.2,122.6 40.5,122.6 41.3,122.6 43.7,122.6 	"/>
	<polygon class="st18" points="40.5,117.8 38.9,118.2 38.9,117.3 41.2,116.7 	"/>
	<polygon class="st15" points="5.8,122.8 5.5,122 5.5,122.1 5.8,123 	"/>
	<polygon points="3.6,122 3.3,122.8 3.3,123 3.6,122.1 	"/>
	<polygon points="3.9,121.9 3.6,122 3.6,122.1 4.2,121.9 	"/>
	<polygon points="5.5,122 5.2,121.9 4.9,121.9 5.5,122.1 	"/>
	<polygon class="st16" points="5.5,122.1 4.9,121.9 4.6,121.9 5.4,122.2 5.7,122.9 5.7,123 5.4,123.7 4.6,124 3.7,123.7 3.4,123 
		3.4,122.9 3.7,122.2 4.5,121.9 4.2,121.9 3.6,122.1 3.3,123 3.6,123.8 4.6,124.1 5.5,123.8 5.8,123 	"/>
	<polygon points="5.4,122.2 4.6,121.9 4.5,121.9 3.7,122.2 3.4,122.9 3.7,123.6 4.6,123.9 5.4,123.6 5.7,122.9 	"/>
	<polygon points="5.7,122.9 5.4,123.6 5.4,123.7 5.7,123 	"/>
	<polygon points="5.4,123.7 5.4,123.6 4.6,123.9 4.6,124 	"/>
	<polygon points="4.6,124 4.6,123.9 3.7,123.6 3.7,123.7 	"/>
	<polygon class="st15" points="3.4,123 3.7,123.7 3.7,123.6 3.4,122.9 	"/>
	<rect x="3.6" y="119.7" width="10.6" height="3.5"/>
	<polygon class="st17" points="3.6,116.1 3.6,116.7 4,116.7 	"/>
	<polygon points="4,116.7 3.6,116.7 3.6,120.6 7.7,120.6 7.7,118.4 7.7,118.2 6.3,118.2 4.7,117.8 	"/>
	<polygon points="14.2,119.7 14.2,119.6 7.7,119.6 7.7,118.9 3.6,118.9 3.6,119.7 	"/>
	<polygon class="st4" points="3.6,119.7 3.6,118.9 3.1,118.9 	"/>
	<polygon points="1.5,123.8 9.8,123.8 9.8,123.5 9.8,122.6 5.7,122.6 5,122.6 4.6,122.6 3.9,122.6 1.5,122.6 	"/>
	<polygon class="st18" points="4.7,117.8 6.3,118.2 6.3,117.3 4,116.7 	"/>
	<polygon class="st19" points="41.2,107.7 40.6,106.1 41.2,105.2 41.2,35.9 39,35.4 6.1,35.4 3.9,35.9 3,37.2 3,53.7 3,53.8 3,55.1 
		3,57.3 3,60.2 3,63.4 3,66.2 3,68.3 3,69.4 3,78.8 3,78.8 3,80.1 3,82.4 3,85.3 3,88.4 3,91.2 3,93.3 3,94.5 3,106.4 3.9,107.7 
		3.9,117.8 3.9,125 3.9,133.6 6.1,134 39,134 41.2,133.6 41.3,133.5 41.6,132.9 42.2,132.2 42.2,130.4 42.2,128 42.2,126.6 
		42.2,126.5 42.2,125.3 42.2,121.9 42.2,118.6 42.2,116.1 42.2,114.7 42.2,114.6 42.2,106.4 	"/>
	<polygon class="st20" points="4.5,106.1 3.9,105.2 3.9,105.2 3.9,36 3,37.2 3,52.8 3,52.9 3,54.3 3,56.9 3,60.1 3,63.6 3,66.9 
		3,69.7 3,69.8 3,77.9 3,78 3,79.4 3,81.9 3,85.1 3,88.6 3,91.9 3,94.7 3,94.8 3,106.3 2.9,106.4 3,106.5 3,115.5 3,115.6 3,116.9 
		3,119.1 3,122 3,125.1 3,127.4 3,127.5 3,128.7 3,131 3,132.2 3.4,132.8 3.7,133.3 3.9,133.6 3.9,125 3.9,117.8 3.9,107.7 
		3.9,107.6 	"/>
	<polygon class="st19" points="6.1,35.4 6.1,34.7 6.5,34.7 8.2,34.7 37.7,34.7 39,34.7 39,35.4 	"/>
	<g>
		<polygon class="st19" points="5.1,34.9 4.6,35 3.9,35.9 6.1,35.4 6.1,34.7 5.3,34.9 		"/>
		<polygon class="st19" points="40.8,35.4 40.6,35 40.5,35 39.5,34.8 39,34.7 39,35.4 41.2,35.9 		"/>
	</g>
	<polygon class="st20" points="42.2,94.8 42.2,94.7 42.2,91.8 42.2,88.6 42.2,85.1 42.2,81.8 42.2,79.3 42.2,77.9 42.2,77.8 
		42.2,69.8 42.2,69.7 42.2,66.8 42.2,63.5 42.2,60.1 42.2,56.8 42.2,54.3 42.2,52.9 42.2,52.8 42.2,37.2 41.2,35.9 41.2,105.2 
		40.6,106.1 41.2,107.7 42.2,106.4 	"/>
	<polygon class="st20" points="41.3,107.7 41.3,117.8 41.3,125 41.3,133.6 41.4,133.3 41.8,132.8 42.2,132.2 42.2,131 42.2,128.7 
		42.2,127.5 42.2,127.4 42.2,125.1 42.2,122 42.2,119.1 42.2,116.9 42.2,115.6 42.2,115.5 42.2,106.4 	"/>
	<polygon class="st4" points="40.5,27.7 40.5,27.5 40.5,26.4 40.5,26.3 	"/>
	<polygon points="40.5,15.9 40.5,15.9 40.5,15.8 40.5,15.7 	"/>
	<polygon points="40.5,26.3 40.5,26.4 40.5,22.9 40.5,22.9 40.5,22.9 	"/>
	<polygon points="40.5,22.9 40.5,22.9 40.5,19.6 40.5,19.7 40.5,19.9 	"/>
	<polygon points="40.5,19.7 40.5,19.6 40.5,17.1 40.5,17.2 40.5,17.6 	"/>
	<polygon points="40.5,17.2 40.5,17.1 40.5,15.8 40.5,15.9 40.5,16.1 40.5,16.2 	"/>
	<polygon class="st4" points="4.7,27.7 4.7,27.4 4.7,26.4 4.7,26.3 	"/>
	<polygon points="4.7,15.9 4.7,15.9 4.7,15.7 4.7,15.6 	"/>
	<polygon points="4.7,26.3 4.7,26.4 4.7,22.9 4.7,22.9 4.7,22.9 	"/>
	<polygon points="4.7,22.9 4.7,22.9 4.7,19.6 4.7,19.7 4.7,19.9 	"/>
	<polygon points="4.7,19.7 4.7,19.6 4.7,17.1 4.7,17.2 4.7,17.6 	"/>
	<polygon points="4.7,17.2 4.7,17.1 4.7,15.7 4.7,15.9 4.7,16.1 4.7,16.2 	"/>
	<path class="st21" d="M39.1,4.7l0.4-1.3l-3-1.4l-3-1.3l0.7,2.1c-7.6-2.3-15.7-2.4-23.3,0l0.7-2.1L8.7,2L5.7,3.5L6,4.7
		C5.6,4.9,5.2,5.1,4.8,5.4v22.4l1,1h33.6l1-1V5.4C40,5.2,39.6,4.9,39.1,4.7z"/>
	<polygon class="st21" points="37.3,11.6 39.5,3.5 39.5,14 	"/>
	<polygon class="st22" points="7.8,11.6 7.8,15.2 6.3,14.9 	"/>
	<polygon class="st21" points="37.3,15.2 37.3,11.6 38.9,14.9 	"/>
	<polygon class="st21" points="11.7,0.8 33.5,0.8 35.2,3.2 31,7.1 10.8,6.3 9.5,2.8 	"/>
	<polygon class="st21" points="39.5,3.5 36.5,2 33.5,0.7 37.3,2 	"/>
	<polygon points="11.7,0.7 33.5,0.7 33.5,0.7 	"/>
	<polygon class="st23" points="4.7,15.2 4.9,15.4 4.7,15.6 	"/>
	<polygon points="5.6,3.5 5.6,14 5.6,14.1 4.7,15.2 4.7,4.7 5,4.4 5.6,3.6 	"/>
	<polygon class="st24" points="33.5,0.8 33.4,11.6 11.8,11.5 11.7,0.8 11.7,0.8 	"/>
	<polygon class="st21" points="5.6,14 5.6,3.5 7.8,11.6 	"/>
	<polygon class="st25" points="40.5,4.7 40.5,17.1 40.4,27.7 40.4,27.7 39.5,26.4 39.5,3.5 40.2,4.4 40.2,4.4 40.4,4.6 	"/>
	<polygon class="st21" points="11.7,0.7 8.7,2 5.6,3.5 7.8,2 	"/>
	<polygon class="st26" points="0.5,3.7 0.6,4.2 2.7,5.4 3.2,5.6 4.7,6.5 4.7,5.8 	"/>
	<polygon class="st27" points="4.7,4.4 2.8,4 2.7,3.7 1.7,3.3 0.5,3.3 0.5,3.7 4.7,5.8 4.7,4.7 5,4.4 	"/>
	<polygon class="st28" points="42.5,3.7 42.4,4 42.5,4 	"/>
	<polygon class="st26" points="44.5,4.2 44.7,3.7 40.4,6.5 41.9,5.6 42.5,5.4 	"/>
	<polygon class="st27" points="40.4,5.8 44.7,3.7 43.5,3.7 	"/>
	<g>
		<polygon class="st26" points="40.4,6.5 44.7,3.7 40.4,5.8 		"/>
		<polygon class="st26" points="40.5,6.5 41.9,5.6 42.5,5.4 44.5,4.2 44.7,3.7 		"/>
	</g>
	<polygon class="st27" points="43.5,3.3 42.5,3.7 42.5,4 42.4,4 40.4,4.4 40.2,4.4 40.4,4.7 40.4,5.8 40.5,5.8 44.7,3.7 44.7,3.3 	
		"/>
	<path d="M33.5,0.8L33.5,0.8L33.5,0.8z"/>
	<polygon class="st21" points="33.5,0.8 33.5,0.7 36.5,2 	"/>
	<polygon points="11.7,0.7 11.7,0.8 11.7,0.8 	"/>
	<polygon class="st21" points="11.7,0.7 11.7,0.8 8.7,2 	"/>
	<polygon class="st25" points="38.3,28.3 39.3,27.8 39.5,26.4 40.5,27.7 39.4,28.7 38.3,28.7 	"/>
	<polygon class="st25" points="5.6,3.5 5.6,26.4 4.7,27.7 4.7,27.7 4.7,17.1 4.7,15.8 4.7,4.7 5,4.4 5,4.4 	"/>
	<polygon class="st25" points="6.8,28.3 5.8,27.8 5.6,26.4 4.7,27.7 5.7,28.7 6.9,28.7 	"/>
	<rect x="6.8" y="28.4" class="st29" width="31.5" height="0.3"/>
	<g>
		<polygon class="st4" points="40.6,27.8 40.5,27.5 40.5,26.4 40.6,26.3 		"/>
		<polygon class="st9" points="44,15.9 44,16 43.9,15.8 43.9,15.7 		"/>
		<polygon class="st9" points="40.6,26.3 40.5,26.4 40.5,23 40.6,23 40.6,23 40.6,26.3 		"/>
		<polygon class="st9" points="40.6,23 40.5,23 40.5,19.7 40.6,19.8 40.6,20 		"/>
		<polygon class="st9" points="40.6,19.8 40.5,19.7 40.5,17.2 40.6,17.3 40.6,17.7 		"/>
		<polygon class="st9" points="40.6,17.3 40.5,17.2 40.5,15.8 40.6,16 40.6,16.3 40.6,16.4 		"/>
		<polygon class="st10" points="41,16.3 41.8,17 41.8,17 41,16.4 		"/>
		<rect x="40.6" y="16.3" class="st10" width="0.4" height="0.1"/>
		<polygon class="st5" points="41,16.4 41.8,17 41.8,18.2 41,17.7 		"/>
		<polygon class="st11" points="41,17.7 41.8,18.2 41.8,20.4 41,20 		"/>
		<polygon class="st12" points="41,17.7 41,20 40.6,20 40.6,19.8 40.6,17.7 		"/>
		<polygon class="st6" points="40.6,20 41,20 41,23 40.6,23 40.6,23 		"/>
		<polygon class="st13" points="41,17.7 40.6,17.7 40.6,17.3 40.6,16.4 41,16.4 		"/>
		<polygon class="st7" points="41,20 41.8,20.4 41.8,23.2 41,23 		"/>
		<rect x="40.6" y="23" class="st14" width="0.4" height="3.2"/>
		<polygon class="st8" points="41,23 41.8,23.2 41.8,26.1 41,26.3 		"/>
		<polygon class="st4" points="4.6,27.7 4.7,27.5 4.7,26.3 4.6,26.3 		"/>
		<polygon class="st9" points="4.6,15.9 4.6,16 4.7,15.7 4.7,15.7 		"/>
		<polygon class="st9" points="4.6,26.3 4.7,26.3 4.7,22.9 4.6,22.9 4.6,23 4.6,26.2 		"/>
		<polygon class="st9" points="4.6,22.9 4.7,22.9 4.7,19.6 4.6,19.8 4.6,20 		"/>
		<polygon class="st9" points="4.6,19.8 4.7,19.6 4.7,17.2 4.6,17.3 4.6,17.6 		"/>
		<polygon class="st9" points="4.6,17.3 4.7,17.2 4.7,15.7 4.6,16 4.6,16.3 4.6,16.3 		"/>
		<polygon class="st5" points="4.2,16.3 3.4,16.9 3.4,17 4.2,16.3 		"/>
		<rect x="4.2" y="16.3" class="st5" width="0.4" height="0.1"/>
		<polygon class="st5" points="4.2,16.3 3.4,17 3.4,18.2 4.2,17.6 		"/>
		<polygon class="st11" points="4.2,17.6 3.4,18.2 3.4,20.4 4.2,20 		"/>
		<polygon class="st12" points="4.2,17.6 4.2,20 4.6,20 4.6,19.8 4.6,17.6 		"/>
		<polygon class="st6" points="4.6,20 4.2,20 4.2,23 4.6,23 4.6,22.9 		"/>
		<polygon class="st13" points="4.2,17.6 4.6,17.6 4.6,17.3 4.6,16.3 4.2,16.3 		"/>
		<polygon class="st7" points="4.2,20 3.4,20.4 3.4,23.2 4.2,23 		"/>
		<rect x="4.2" y="23" class="st14" width="0.4" height="3.2"/>
		<polygon class="st8" points="4.2,23 3.4,23.2 3.4,26.1 4.2,26.2 		"/>
	</g>
</g>
</svg>
